<?xml version="1.0" encoding="utf-8"?>
<!-- Generator: Adobe Illustrator 16.0.0, SVG Export Plug-In . SVG Version: 6.00 Build 0)  -->
<!DOCTYPE svg PUBLIC "-//W3C//DTD SVG 1.0//EN" "http://www.w3.org/TR/2001/REC-SVG-20010904/DTD/svg10.dtd">
<svg version="1.0" id="Layer_1" xmlns="http://www.w3.org/2000/svg" xmlns:xlink="http://www.w3.org/1999/xlink" x="0px" y="0px"
	 width="64px" height="64px" viewBox="0 0 100 100" enable-background="new 0 0 100 100" xml:space="preserve">
<polygon fill="#8BC34A" points="64.139,64.138 90,90 80.573,90 59.425,68.853 "/>
<polygon fill="#8BC34A" points="49.998,31.144 28.855,10 19.43,10 45.285,35.853 "/>
<polygon fill="#8BC34A" points="73.564,45.284 89.996,28.854 89.996,19.428 68.852,40.57 "/>
<polygon fill="#263238" points="49.998,40.57 80.568,10 89.996,10 59.425,40.57 90,71.146 90,80.572 "/>
<polygon fill="#8BC34A" points="40.568,59.425 35.857,54.71 10,80.569 10,89.997 40.568,59.428 "/>
<polygon fill="#263238" points="59.421,59.42 28.854,89.997 19.427,89.997 49.998,59.425 10.003,19.428 10.003,10 "/>
</svg>
